<svg xmlns="http://www.w3.org/2000/svg" viewBox="0 0 35 35"><defs><style>.cls-1{fill:#231f20;}</style></defs><title>48 0</title><g id="Artwork_glyph" data-name="Artwork glyph"><path class="cls-1" d="M23,4.2c-6-4.41-10.65-.13-13,5.7a2.94,2.94,0,0,0-.19.7h0a2.42,2.42,0,0,0-.37,1.33c0,5.16-.74,14.77,5.57,16.86,6.1,2,11.05-4.33,12.56-9.46C29.21,13.47,27.94,7.84,23,4.2ZM22,19.82c-1.36,2.82-5.55,6.41-7.08,1.21-.8-2.72-.52-6.29-.53-9.09v-.06a2.32,2.32,0,0,0,.38-.65C15.64,9.05,17.66,7,20,8.17a6.51,6.51,0,0,1,2.72,2.95C23.83,13.7,23.15,17.38,22,19.82Z"/></g></svg>