<svg xmlns="http://www.w3.org/2000/svg" viewBox="0 0 35 35"><defs><style>.cls-1{fill:#231f20;}</style></defs><title>57 9</title><g id="Artwork_glyph" data-name="Artwork glyph"><path class="cls-1" d="M22.52,1.52c-4.47-2.16-9.63.67-11.86,4.7-4.52,8.19,3.78,12.17,10.69,10.56-.93,4.67-2.62,9.86-7,7.31-2.77-1.63-5.29,2.69-2.52,4.32,3.12,1.84,7.28,2.39,10.23-.14s3.69-7.76,4.39-12a2.81,2.81,0,0,0,.2-.58C27.81,10.66,28,4.14,22.52,1.52ZM22.46,11c-2.41,1.72-8.31,2.79-7.81-1.3a5,5,0,0,1,1.47-2.48c1.24-1.54,2.55-1.69,3.93-.48A4,4,0,0,1,22.46,11Z"/></g></svg>