<svg xmlns="http://www.w3.org/2000/svg" viewBox="0 0 35 35"><defs><style>.cls-1{fill:#231f20;}</style></defs><title>63 question</title><g id="Artwork_glyph" data-name="Artwork glyph"><path class="cls-1" d="M12.39,11.3c1.45-2,1-5.1,4-5.93a4.21,4.21,0,0,1,3.9,1.07c1.71,1.72.14,2.73-1.12,3.92A10.87,10.87,0,0,0,16.09,21c.72,3.13,5.55,1.81,4.82-1.33C19.81,15,24.09,14,25.67,10.44,27,7.37,25.34,4,22.8,2.07a8.91,8.91,0,0,0-9-1A9.07,9.07,0,0,0,10.3,3.84C9.16,5.36,9.12,7.31,8.08,8.78c-1.87,2.63,2.46,5.13,4.31,2.52Z"/><path class="cls-1" d="M14.81,27.25l.34,1.7a2.52,2.52,0,0,0,3.08,1.75A2.56,2.56,0,0,0,20,27.62l-.34-1.7a2.51,2.51,0,0,0-3.07-1.74,2.55,2.55,0,0,0-1.75,3.07Z"/></g></svg>