<svg xmlns="http://www.w3.org/2000/svg" viewBox="0 0 35 35"><defs><style>.cls-1{fill:#231f20;}</style></defs><title>65 A</title><g id="Artwork_glyph" data-name="Artwork glyph"><path class="cls-1" d="M29.78,26.71l-2.32-7.42c1.08-1.17.39-3.46-1.27-4.06l-.56-1.79c-1-3.14-1.61-6.61-4.15-8.88A2.47,2.47,0,0,0,20,3.9a2.48,2.48,0,0,0-4.17-1.27C9.31,9.37,7.62,18.43,6.94,27.47c-.24,3.21,4.77,3.19,5,0,.17-2.26.41-4.55.79-6.79a53.2,53.2,0,0,0,9.86-.22L25,28C25.91,31.1,30.74,29.79,29.78,26.71Zm-15.88-11A24.66,24.66,0,0,1,17.81,8l.14.13c1.78,1.6,2.56,4.82,3.23,7.52A47.79,47.79,0,0,1,13.9,15.74Z"/></g></svg>