<svg xmlns="http://www.w3.org/2000/svg" viewBox="0 0 35 35"><defs><style>.cls-1{fill:#231f20;}</style></defs><title>66 B</title><g id="Artwork_glyph" data-name="Artwork glyph"><path class="cls-1" d="M28.16,21.9a7.69,7.69,0,0,0-4.35-6.73c2.83-1.73,4.61-4.24,3.19-7.89C24.7,1.39,17.31.6,12.19,2.92,11.37.42,7.13.63,7.32,3.6q.77,11.75,1.52,23.48a2.45,2.45,0,0,0,1.13,2A2.57,2.57,0,0,0,12.3,31.2C18.49,31.74,28.71,30.16,28.16,21.9ZM13.59,7.81a7.06,7.06,0,0,1,4.6-1.13C20,6.89,23.66,7.87,21,11.12c-1.3,1.55-5.47,2.18-8,2.62-.12-1.86-.24-3.73-.37-5.59A2.61,2.61,0,0,0,13.59,7.81ZM21.73,24a3.71,3.71,0,0,1-3.16,2,13.62,13.62,0,0,1-4.78.35q-.24-3.78-.49-7.56C16.41,18.34,21,17.7,22.37,21Q24.34,22.8,21.73,24Z"/></g></svg>