<svg xmlns="http://www.w3.org/2000/svg" viewBox="0 0 35 35"><defs><style>.cls-1{fill:#231f20;}</style></defs><title>67 C</title><g id="Artwork_glyph" data-name="Artwork glyph"><path class="cls-1" d="M29.41,8C25.5,3.23,19.4-.4,13.16,2.09,7.91,4.18,4.9,10.54,4.8,15.92a13.1,13.1,0,0,0,8.54,12.72c6.43,2.21,11.59-1.86,15.44-6.61,2-2.48-1.5-6-3.53-3.54C23,21.32,20,25,15.82,24.16c-3.82-.78-6.08-4.52-6-8.24.07-3.54,2.12-8.3,5.83-9.41,4.18-1.25,7.84,2.09,10.24,5C27.92,14,31.44,10.45,29.41,8Z"/></g></svg>