<svg xmlns="http://www.w3.org/2000/svg" viewBox="0 0 35 35"><defs><style>.cls-1{fill:#231f20;}</style></defs><title>93 bracketright</title><g id="Artwork_glyph" data-name="Artwork glyph"><path class="cls-1" d="M13,7.3A17.58,17.58,0,0,1,16.05,7c3.05.3.65-.94,1.26.84C18,10,17,14.29,16.84,16.49l-.41,7.67c-.07,1.2.33,3.68-.33,4.59s-1.08.57-2.77.71c-3.18.28-3.21,5.28,0,5,2.93-.25,5.91.54,7.43-2.64.88-1.83.51-4.82.61-6.7l.47-8.63c.2-3.62,1.77-9.43-.2-12.64C19.8.84,15.94,2,13,2.3c-3.18.29-3.21,5.3,0,5Z"/></g></svg>